<svg xmlns="http://www.w3.org/2000/svg" width="48.446" height="48.718" viewBox="0 0 48.446 48.718">
  <g id="Layer_x0020_1" transform="translate(-9.291 -8.187)">
    <path id="Path_811" data-name="Path 811" d="M228.819,516.548H240.38V538.7H228.819v0h0a4.826,4.826,0,0,1-4.817-4.82h0V521.365a4.826,4.826,0,0,1,4.821-4.817Zm9.623,1.929h-9.623a2.9,2.9,0,0,0-2.883,2.887v12.519h0a2.9,2.9,0,0,0,2.886,2.883h0v0h9.623Z" transform="translate(-214.707 -499.037)" fill="#1a1a1a"/>
    <path id="Path_812" data-name="Path 812" d="M344.619,1281.45h11.307l-1.438,1.613a3.882,3.882,0,0,0-.739,1.236,4.265,4.265,0,0,0-.261,1.483,4.149,4.149,0,0,0,.677,2.3,3.389,3.389,0,0,0,1.7,1.353l.946.324-.352.933a4.464,4.464,0,0,0-.217.781,4.627,4.627,0,0,0-.069.822,4.513,4.513,0,0,0,.366,1.8,4.151,4.151,0,0,0,1.03,1.441l1.462,1.309-1.932.36c-3.34.622-5.839.654-7.694,0a6.02,6.02,0,0,1-3.888-4.45l-.019-.091-1.832-10.075-.207-1.139Zm7.41,1.938h-6.253l1.613,8.867a4.213,4.213,0,0,0,2.663,3.126,11.2,11.2,0,0,0,5.079.19,6.151,6.151,0,0,1-.359-.7,6.451,6.451,0,0,1-.533-2.573,6.545,6.545,0,0,1,.107-1.162q.023-.126.05-.25a5.461,5.461,0,0,1-1.843-1.733,6.079,6.079,0,0,1-1-3.369,6.179,6.179,0,0,1,.383-2.149Q351.979,1283.508,352.03,1283.388Z" transform="translate(-330.554 -1240.78)" fill="#1a1a1a"/>
    <path id="Path_813" data-name="Path 813" d="M732.975,238.214c10.865,0,23.7,5.939,27.921,8.053V211.883c-4.223,2.112-17.054,8.047-27.919,8.047v-1.938c12.712,0,28.385-8.524,28.43-8.549l1.427-.769v13.889a4.667,4.667,0,0,1,3.176,4.41v3.009a4.667,4.667,0,0,1-3.176,4.41v15.083l-1.427-.77c-.046-.025-15.72-8.555-28.432-8.555v-1.938ZM763.4,225.2a2.781,2.781,0,0,0-.571-.5v7.562a2.782,2.782,0,0,0,.571-.5,2.7,2.7,0,0,0,.667-1.778v-3.009A2.7,2.7,0,0,0,763.4,225.2Z" transform="translate(-708.273 -200.486)" fill="#1a1a1a"/>
  </g>
</svg>
