<svg xmlns="http://www.w3.org/2000/svg" width="28.919" height="57.806" viewBox="0 0 28.919 57.806">
  <g id="_550318576" transform="translate(0 0)">
    <circle id="_550320208" cx="1.171" cy="1.171" r="1.171" transform="translate(10.811 6.093)" fill="#1a1a1a"/>
    <ellipse id="_550322728" cx="1.464" cy="1.171" rx="1.464" ry="1.171" transform="translate(15.494 6.093)" fill="#1a1a1a"/>
    <g id="Group_61" data-name="Group 61">
      <path id="_550328392" d="M668.7,737.2v7.828a13.522,13.522,0,0,1-4.27,9.8,14.846,14.846,0,0,1-20.379,0,13.522,13.522,0,0,1-4.27-9.8V736H668.7Zm-2.409,7.828v-6.624h-24.1v6.624a11.125,11.125,0,0,0,3.517,8.06,12.461,12.461,0,0,0,17.067,0,11.124,11.124,0,0,0,3.517-8.06Z" transform="translate(-639.786 -717.936)" fill="#1a1a1a"/>
      <path id="_550330648" d="M777.631,258.407h0a7.25,7.25,0,0,0-7.226,7.226v16.86a7.25,7.25,0,0,0,7.226,7.226h0a7.25,7.25,0,0,0,7.226-7.226v-16.86a7.25,7.25,0,0,0-7.226-7.226Zm0-2.409h0a9.659,9.659,0,0,1,9.634,9.634v16.86a9.659,9.659,0,0,1-9.634,9.634h0A9.659,9.659,0,0,1,768,282.493v-16.86A9.659,9.659,0,0,1,777.631,256Z" transform="translate(-763.172 -255.998)" fill="#1a1a1a"/>
      <path id="_550320928" d="M994.408,1311.91v16.85H992v-16.85Z" transform="translate(-978.744 -1272.172)" fill="#1a1a1a"/>
      <path id="_550330216" d="M800,1728h16.86v2.408H800Z" transform="translate(-793.971 -1672.603)" fill="#1a1a1a"/>
    </g>
    <circle id="_550322776" cx="1.171" cy="1.171" r="1.171" transform="translate(8.469 9.606)" fill="#1a1a1a"/>
    <circle id="_550327552" cx="1.171" cy="1.171" r="1.171" transform="translate(13.152 9.606)" fill="#1a1a1a"/>
    <circle id="_550323976" cx="1.171" cy="1.171" r="1.171" transform="translate(18.421 9.606)" fill="#1a1a1a"/>
    <ellipse id="_550323280" cx="1.204" cy="1.204" rx="1.204" ry="1.204" transform="translate(10.847 13.253)" fill="#1a1a1a"/>
    <ellipse id="_550325368" cx="1.204" cy="1.204" rx="1.204" ry="1.204" transform="translate(15.664 13.253)" fill="#1a1a1a"/>
  </g>
</svg>
