<svg xmlns="http://www.w3.org/2000/svg" width="60.345" height="40.728" viewBox="0 0 60.345 40.728">
  <g id="Layer_x0020_1" transform="translate(-41.69 -85.767)">
    <path id="Path_814" data-name="Path 814" d="M263.124,555.762a38.544,38.544,0,0,1,60.345.224l-1.983,1.566a36.016,36.016,0,0,0-56.389-.2l-1.973-1.586Z" transform="translate(-221.434 -455.545)" fill="#1a1a1a"/>
    <path id="Path_815" data-name="Path 815" d="M457.823,777.149a27.948,27.948,0,0,1,44.909.22l-2.042,1.5a25.417,25.417,0,0,0-40.845-.2l-2.022-1.517Z" transform="translate(-408.413 -671.272)" fill="#1a1a1a"/>
    <path id="Path_816" data-name="Path 816" d="M660.845,1024.849a17.856,17.856,0,0,1,28.809.216l-2.052,1.477a15.323,15.323,0,0,0-24.725-.187Z" transform="translate(-603.384 -912.993)" fill="#1a1a1a"/>
    <path id="Path_817" data-name="Path 817" d="M870.342,1248.47a6.345,6.345,0,1,1-4.486,1.858A6.324,6.324,0,0,1,870.342,1248.47Zm2.692,3.653a3.807,3.807,0,1,0,1.115,2.692A3.795,3.795,0,0,0,873.034,1252.123Z" transform="translate(-798.482 -1134.663)" fill="#1a1a1a"/>
  </g>
</svg>
